<?xml version="1.0" encoding="UTF-8" standalone="no"?><svg xmlns="http://www.w3.org/2000/svg" xmlns:xlink="http://www.w3.org/1999/xlink" contentStyleType="text/css" height="817px" preserveAspectRatio="none" style="width:725px;height:817px;background:#FFFFFF;" version="1.1" viewBox="0 0 725 817" width="725px" zoomAndPan="magnify"><defs/><g><rect fill="none" height="26.4883" id="_title" style="stroke:none;stroke-width:1.0;" width="171" x="270.25" y="5"/><text fill="#000000" font-family="sans-serif" font-size="14" font-weight="bold" lengthAdjust="spacing" textLength="161" x="275.25" y="23.5352">Go modules visualiser</text><!--MD5=[ede21eed12381d745607d2f9b20fbd69]
class IVisualiser--><g id="elem_IVisualiser"><rect codeLine="4" fill="#F1F1F1" height="97.4648" id="IVisualiser" rx="2.5" ry="2.5" style="stroke:#181818;stroke-width:0.5;" width="223" x="7" y="411.4883"/><ellipse cx="79.25" cy="427.4883" fill="#B4A7E5" rx="11" ry="11" style="stroke:#181818;stroke-width:1.0;"/><path d="M75.6777,423.7534 L75.6777,421.5952 L83.0571,421.5952 L83.0571,423.7534 L80.5918,423.7534 L80.5918,431.8301 L83.0571,431.8301 L83.0571,433.9883 L75.6777,433.9883 L75.6777,431.8301 L78.1431,431.8301 L78.1431,423.7534 Z " fill="#000000"/><text fill="#000000" font-family="sans-serif" font-size="14" font-style="italic" lengthAdjust="spacing" textLength="70" x="99.75" y="432.7793">IVisualiser</text><line style="stroke:#181818;stroke-width:0.5;" x1="8" x2="229" y1="443.4883" y2="443.4883"/><line style="stroke:#181818;stroke-width:0.5;" x1="8" x2="229" y1="451.4883" y2="451.4883"/><ellipse cx="18" cy="465.2324" fill="#84BE84" rx="3" ry="3" style="stroke:#038048;stroke-width:1.0;"/><text fill="#000000" font-family="sans-serif" font-size="14" lengthAdjust="spacing" textLength="105" x="27" y="469.0234">visualise(): void</text><ellipse cx="18" cy="481.7207" fill="#84BE84" rx="3" ry="3" style="stroke:#038048;stroke-width:1.0;"/><text fill="#000000" font-family="sans-serif" font-size="14" lengthAdjust="spacing" textLength="191" x="27" y="485.5117">readFiles(files []string): void</text><ellipse cx="18" cy="498.209" fill="#84BE84" rx="3" ry="3" style="stroke:#038048;stroke-width:1.0;"/><text fill="#000000" font-family="sans-serif" font-size="14" lengthAdjust="spacing" textLength="197" x="27" y="502">readFolder(path string): void</text></g><!--MD5=[118c1c430085decf5e1f424a04d4d6c0]
class FileModules--><g id="elem_FileModules"><rect codeLine="10" fill="#F1F1F1" height="97.4648" id="FileModules" rx="2.5" ry="2.5" style="stroke:#181818;stroke-width:0.5;" width="143" x="48" y="44.4883"/><ellipse cx="76.05" cy="60.4883" fill="#ADD1B2" rx="11" ry="11" style="stroke:#181818;stroke-width:1.0;"/><path d="M78.5231,66.6313 Q77.9421,66.9302 77.3029,67.0796 Q76.6638,67.229 75.9582,67.229 Q73.4514,67.229 72.1315,65.5771 Q70.8117,63.9253 70.8117,60.8042 Q70.8117,57.6748 72.1315,56.0229 Q73.4514,54.3711 75.9582,54.3711 Q76.6638,54.3711 77.3112,54.5205 Q77.9587,54.6699 78.5231,54.9688 L78.5231,57.6914 Q77.8923,57.1104 77.2988,56.8406 Q76.7053,56.5708 76.0744,56.5708 Q74.7297,56.5708 74.0449,57.6375 Q73.3601,58.7041 73.3601,60.8042 Q73.3601,62.896 74.0449,63.9626 Q74.7297,65.0293 76.0744,65.0293 Q76.7053,65.0293 77.2988,64.7595 Q77.8923,64.4897 78.5231,63.9087 Z " fill="#000000"/><text fill="#000000" font-family="sans-serif" font-size="14" lengthAdjust="spacing" textLength="82" x="92.95" y="65.7793">FileModules</text><line style="stroke:#181818;stroke-width:0.5;" x1="49" x2="190" y1="76.4883" y2="76.4883"/><ellipse cx="59" cy="90.2324" fill="none" rx="3" ry="3" style="stroke:#038048;stroke-width:1.0;"/><text fill="#000000" font-family="sans-serif" font-size="14" lengthAdjust="spacing" textLength="117" x="68" y="94.0234">modules: []string</text><ellipse cx="59" cy="106.7207" fill="none" rx="3" ry="3" style="stroke:#038048;stroke-width:1.0;"/><text fill="#000000" font-family="sans-serif" font-size="14" lengthAdjust="spacing" textLength="69" x="68" y="110.5117">file: string</text><ellipse cx="59" cy="123.209" fill="none" rx="3" ry="3" style="stroke:#038048;stroke-width:1.0;"/><text fill="#000000" font-family="sans-serif" font-size="14" lengthAdjust="spacing" textLength="92" x="68" y="127">hash: hash64</text><line style="stroke:#181818;stroke-width:0.5;" x1="49" x2="190" y1="133.9531" y2="133.9531"/></g><!--MD5=[a92ee7847fe0aca0553b922c54027c1f]
class Visualiser--><g id="elem_Visualiser"><rect codeLine="16" fill="#F1F1F1" height="130.4414" id="Visualiser" rx="2.5" ry="2.5" style="stroke:#181818;stroke-width:0.5;" width="275" x="190" y="221.4883"/><ellipse cx="290.25" cy="237.4883" fill="#ADD1B2" rx="11" ry="11" style="stroke:#181818;stroke-width:1.0;"/><path d="M292.7231,243.6313 Q292.1421,243.9302 291.5029,244.0796 Q290.8638,244.229 290.1582,244.229 Q287.6514,244.229 286.3315,242.5771 Q285.0117,240.9253 285.0117,237.8042 Q285.0117,234.6748 286.3315,233.0229 Q287.6514,231.3711 290.1582,231.3711 Q290.8638,231.3711 291.5112,231.5205 Q292.1587,231.6699 292.7231,231.9688 L292.7231,234.6914 Q292.0923,234.1104 291.4988,233.8406 Q290.9053,233.5708 290.2744,233.5708 Q288.9297,233.5708 288.2449,234.6375 Q287.5601,235.7041 287.5601,237.8042 Q287.5601,239.896 288.2449,240.9626 Q288.9297,242.0293 290.2744,242.0293 Q290.9053,242.0293 291.4988,241.7595 Q292.0923,241.4897 292.7231,240.9087 Z " fill="#000000"/><text fill="#000000" font-family="sans-serif" font-size="14" lengthAdjust="spacing" textLength="66" x="310.75" y="242.7793">Visualiser</text><line style="stroke:#181818;stroke-width:0.5;" x1="191" x2="464" y1="253.4883" y2="253.4883"/><ellipse cx="201" cy="267.2324" fill="none" rx="3" ry="3" style="stroke:#038048;stroke-width:1.0;"/><text fill="#000000" font-family="sans-serif" font-size="14" lengthAdjust="spacing" textLength="86" x="210" y="271.0234">files: []string</text><rect fill="none" height="6" style="stroke:#C82930;stroke-width:1.0;" width="6" x="198" y="280.7207"/><text fill="#000000" font-family="sans-serif" font-size="14" lengthAdjust="spacing" textLength="249" x="210" y="287.5117">fileModules: map[string]FileModules</text><rect fill="none" height="6" style="stroke:#C82930;stroke-width:1.0;" width="6" x="198" y="297.209"/><text fill="#000000" font-family="sans-serif" font-size="14" lengthAdjust="spacing" textLength="91" x="210" y="304">graph: Graph</text><line style="stroke:#181818;stroke-width:1.0;" x1="191" x2="464" y1="310.9531" y2="310.9531"/><ellipse cx="201" cy="324.6973" fill="#84BE84" rx="3" ry="3" style="stroke:#038048;stroke-width:1.0;"/><text fill="#000000" font-family="sans-serif" font-size="14" lengthAdjust="spacing" textLength="191" x="210" y="328.4883">readFiles(files []string): void</text><ellipse cx="201" cy="341.1855" fill="#84BE84" rx="3" ry="3" style="stroke:#038048;stroke-width:1.0;"/><text fill="#000000" font-family="sans-serif" font-size="14" lengthAdjust="spacing" textLength="197" x="210" y="344.9766">readFolder(path string): void</text></g><!--MD5=[d35e3eac4d760b15f514ac102f5d9113]
class VisualiserConsole--><g id="elem_VisualiserConsole"><rect codeLine="25" fill="#F1F1F1" height="64.4883" id="VisualiserConsole" rx="2.5" ry="2.5" style="stroke:#181818;stroke-width:0.5;" width="154" x="250.5" y="60.9883"/><ellipse cx="265.5" cy="76.9883" fill="#ADD1B2" rx="11" ry="11" style="stroke:#181818;stroke-width:1.0;"/><path d="M267.9731,83.1313 Q267.3921,83.4302 266.7529,83.5796 Q266.1138,83.729 265.4082,83.729 Q262.9014,83.729 261.5815,82.0771 Q260.2617,80.4253 260.2617,77.3042 Q260.2617,74.1748 261.5815,72.5229 Q262.9014,70.8711 265.4082,70.8711 Q266.1138,70.8711 266.7612,71.0205 Q267.4087,71.1699 267.9731,71.4688 L267.9731,74.1914 Q267.3423,73.6104 266.7488,73.3406 Q266.1553,73.0708 265.5244,73.0708 Q264.1797,73.0708 263.4949,74.1375 Q262.8101,75.2041 262.8101,77.3042 Q262.8101,79.396 263.4949,80.4626 Q264.1797,81.5293 265.5244,81.5293 Q266.1553,81.5293 266.7488,81.2595 Q267.3423,80.9897 267.9731,80.4087 Z " fill="#000000"/><text fill="#000000" font-family="sans-serif" font-size="14" lengthAdjust="spacing" textLength="122" x="279.5" y="82.2793">VisualiserConsole</text><line style="stroke:#181818;stroke-width:0.5;" x1="251.5" x2="403.5" y1="92.9883" y2="92.9883"/><line style="stroke:#181818;stroke-width:0.5;" x1="251.5" x2="403.5" y1="100.9883" y2="100.9883"/><ellipse cx="261.5" cy="114.7324" fill="#84BE84" rx="3" ry="3" style="stroke:#038048;stroke-width:1.0;"/><text fill="#000000" font-family="sans-serif" font-size="14" lengthAdjust="spacing" textLength="105" x="270.5" y="118.5234">visualise(): void</text></g><!--MD5=[84827be51017b37e1451cc41a62b3eb9]
class VisualiserPUML--><g id="elem_VisualiserPUML"><rect codeLine="29" fill="#F1F1F1" height="64.4883" id="VisualiserPUML" rx="2.5" ry="2.5" style="stroke:#181818;stroke-width:0.5;" width="135" x="440" y="60.9883"/><ellipse cx="455" cy="76.9883" fill="#ADD1B2" rx="11" ry="11" style="stroke:#181818;stroke-width:1.0;"/><path d="M457.4731,83.1313 Q456.8921,83.4302 456.2529,83.5796 Q455.6138,83.729 454.9082,83.729 Q452.4014,83.729 451.0815,82.0771 Q449.7617,80.4253 449.7617,77.3042 Q449.7617,74.1748 451.0815,72.5229 Q452.4014,70.8711 454.9082,70.8711 Q455.6138,70.8711 456.2612,71.0205 Q456.9087,71.1699 457.4731,71.4688 L457.4731,74.1914 Q456.8423,73.6104 456.2488,73.3406 Q455.6553,73.0708 455.0244,73.0708 Q453.6797,73.0708 452.9949,74.1375 Q452.3101,75.2041 452.3101,77.3042 Q452.3101,79.396 452.9949,80.4626 Q453.6797,81.5293 455.0244,81.5293 Q455.6553,81.5293 456.2488,81.2595 Q456.8423,80.9897 457.4731,80.4087 Z " fill="#000000"/><text fill="#000000" font-family="sans-serif" font-size="14" lengthAdjust="spacing" textLength="103" x="469" y="82.2793">VisualiserPUML</text><line style="stroke:#181818;stroke-width:0.5;" x1="441" x2="574" y1="92.9883" y2="92.9883"/><line style="stroke:#181818;stroke-width:0.5;" x1="441" x2="574" y1="100.9883" y2="100.9883"/><ellipse cx="451" cy="114.7324" fill="#84BE84" rx="3" ry="3" style="stroke:#038048;stroke-width:1.0;"/><text fill="#000000" font-family="sans-serif" font-size="14" lengthAdjust="spacing" textLength="105" x="460" y="118.5234">visualise(): void</text></g><!--MD5=[ea1c90698d25d7e40c8cb69bd793e057]
class FilePattern--><g id="elem_FilePattern"><rect codeLine="33" fill="#F1F1F1" height="80.9766" id="FilePattern" rx="2.5" ry="2.5" style="stroke:#181818;stroke-width:0.5;" width="124" x="265.5" y="419.4883"/><ellipse cx="289.05" cy="435.4883" fill="#ADD1B2" rx="11" ry="11" style="stroke:#181818;stroke-width:1.0;"/><path d="M291.5231,441.6313 Q290.9421,441.9302 290.3029,442.0796 Q289.6638,442.229 288.9582,442.229 Q286.4514,442.229 285.1315,440.5771 Q283.8117,438.9253 283.8117,435.8042 Q283.8117,432.6748 285.1315,431.0229 Q286.4514,429.3711 288.9582,429.3711 Q289.6638,429.3711 290.3112,429.5205 Q290.9587,429.6699 291.5231,429.9688 L291.5231,432.6914 Q290.8923,432.1104 290.2988,431.8406 Q289.7053,431.5708 289.0744,431.5708 Q287.7297,431.5708 287.0449,432.6375 Q286.3601,433.7041 286.3601,435.8042 Q286.3601,437.896 287.0449,438.9626 Q287.7297,440.0293 289.0744,440.0293 Q289.7053,440.0293 290.2988,439.7595 Q290.8923,439.4897 291.5231,438.9087 Z " fill="#000000"/><text fill="#000000" font-family="sans-serif" font-size="14" lengthAdjust="spacing" textLength="73" x="304.95" y="440.7793">FilePattern</text><line style="stroke:#181818;stroke-width:0.5;" x1="266.5" x2="388.5" y1="451.4883" y2="451.4883"/><ellipse cx="276.5" cy="465.2324" fill="none" rx="3" ry="3" style="stroke:#038048;stroke-width:1.0;"/><text fill="#000000" font-family="sans-serif" font-size="14" lengthAdjust="spacing" textLength="98" x="285.5" y="469.0234">pattern: string</text><ellipse cx="276.5" cy="481.7207" fill="none" rx="3" ry="3" style="stroke:#038048;stroke-width:1.0;"/><text fill="#000000" font-family="sans-serif" font-size="14" lengthAdjust="spacing" textLength="91" x="285.5" y="485.5117">regex: Regex</text><line style="stroke:#181818;stroke-width:0.5;" x1="266.5" x2="388.5" y1="492.4648" y2="492.4648"/></g><!--MD5=[0c00d21ac5f48b24ca3343745da8cebf]
class RequirementNode--><g id="elem_RequirementNode"><rect codeLine="38" fill="#F1F1F1" height="80.9766" id="RequirementNode" rx="2.5" ry="2.5" style="stroke:#181818;stroke-width:0.5;" width="224" x="435.5" y="729.4883"/><ellipse cx="481.25" cy="745.4883" fill="#ADD1B2" rx="11" ry="11" style="stroke:#181818;stroke-width:1.0;"/><path d="M483.7231,751.6313 Q483.1421,751.9302 482.5029,752.0796 Q481.8638,752.229 481.1582,752.229 Q478.6514,752.229 477.3315,750.5771 Q476.0117,748.9253 476.0117,745.8042 Q476.0117,742.6748 477.3315,741.0229 Q478.6514,739.3711 481.1582,739.3711 Q481.8638,739.3711 482.5112,739.5205 Q483.1587,739.6699 483.7231,739.9688 L483.7231,742.6914 Q483.0923,742.1104 482.4988,741.8406 Q481.9053,741.5708 481.2744,741.5708 Q479.9297,741.5708 479.2449,742.6375 Q478.5601,743.7041 478.5601,745.8042 Q478.5601,747.896 479.2449,748.9626 Q479.9297,750.0293 481.2744,750.0293 Q481.9053,750.0293 482.4988,749.7595 Q483.0923,749.4897 483.7231,748.9087 Z " fill="#000000"/><text fill="#000000" font-family="sans-serif" font-size="14" lengthAdjust="spacing" textLength="124" x="501.75" y="750.7793">RequirementNode</text><line style="stroke:#181818;stroke-width:0.5;" x1="436.5" x2="658.5" y1="761.4883" y2="761.4883"/><text fill="#000000" font-family="sans-serif" font-size="14" lengthAdjust="spacing" textLength="63" x="441.5" y="779.0234">url string</text><text fill="#000000" font-family="sans-serif" font-size="14" lengthAdjust="spacing" textLength="212" x="441.5" y="795.5117">childs map[string]Requirement</text><line style="stroke:#181818;stroke-width:0.5;" x1="436.5" x2="658.5" y1="802.4648" y2="802.4648"/></g><!--MD5=[ea9b6de6547c3ff147b5b75930969138]
class Requirement--><g id="elem_Requirement"><rect codeLine="43" fill="#F1F1F1" height="80.9766" id="Requirement" rx="2.5" ry="2.5" style="stroke:#181818;stroke-width:0.5;" width="238" x="428.5" y="568.4883"/><ellipse cx="499.25" cy="584.4883" fill="#ADD1B2" rx="11" ry="11" style="stroke:#181818;stroke-width:1.0;"/><path d="M501.7231,590.6313 Q501.1421,590.9302 500.5029,591.0796 Q499.8638,591.229 499.1582,591.229 Q496.6514,591.229 495.3315,589.5771 Q494.0117,587.9253 494.0117,584.8042 Q494.0117,581.6748 495.3315,580.0229 Q496.6514,578.3711 499.1582,578.3711 Q499.8638,578.3711 500.5112,578.5205 Q501.1587,578.6699 501.7231,578.9688 L501.7231,581.6914 Q501.0923,581.1104 500.4988,580.8406 Q499.9053,580.5708 499.2744,580.5708 Q497.9297,580.5708 497.2449,581.6375 Q496.5601,582.7041 496.5601,584.8042 Q496.5601,586.896 497.2449,587.9626 Q497.9297,589.0293 499.2744,589.0293 Q499.9053,589.0293 500.4988,588.7595 Q501.0923,588.4897 501.7231,587.9087 Z " fill="#000000"/><text fill="#000000" font-family="sans-serif" font-size="14" lengthAdjust="spacing" textLength="88" x="519.75" y="589.7793">Requirement</text><line style="stroke:#181818;stroke-width:0.5;" x1="429.5" x2="665.5" y1="600.4883" y2="600.4883"/><ellipse cx="439.5" cy="614.2324" fill="none" rx="3" ry="3" style="stroke:#038048;stroke-width:1.0;"/><text fill="#000000" font-family="sans-serif" font-size="14" lengthAdjust="spacing" textLength="157" x="448.5" y="618.0234">root RequirementNode</text><line style="stroke:#181818;stroke-width:1.0;" x1="429.5" x2="665.5" y1="624.9766" y2="624.9766"/><ellipse cx="439.5" cy="638.7207" fill="#84BE84" rx="3" ry="3" style="stroke:#038048;stroke-width:1.0;"/><text fill="#000000" font-family="sans-serif" font-size="14" lengthAdjust="spacing" textLength="212" x="448.5" y="642.5117">addRequirement(Requirement)</text></g><!--MD5=[83be431364dff9b246ae9f5ccb9d0a4f]
class FileMod--><g id="elem_FileMod"><rect codeLine="50" fill="#F1F1F1" height="80.9766" id="FileMod" rx="2.5" ry="2.5" style="stroke:#181818;stroke-width:0.5;" width="246" x="424.5" y="419.4883"/><ellipse cx="516.25" cy="435.4883" fill="#ADD1B2" rx="11" ry="11" style="stroke:#181818;stroke-width:1.0;"/><path d="M518.7231,441.6313 Q518.1421,441.9302 517.5029,442.0796 Q516.8638,442.229 516.1582,442.229 Q513.6514,442.229 512.3315,440.5771 Q511.0117,438.9253 511.0117,435.8042 Q511.0117,432.6748 512.3315,431.0229 Q513.6514,429.3711 516.1582,429.3711 Q516.8638,429.3711 517.5112,429.5205 Q518.1587,429.6699 518.7231,429.9688 L518.7231,432.6914 Q518.0923,432.1104 517.4988,431.8406 Q516.9053,431.5708 516.2744,431.5708 Q514.9297,431.5708 514.2449,432.6375 Q513.5601,433.7041 513.5601,435.8042 Q513.5601,437.896 514.2449,438.9626 Q514.9297,440.0293 516.2744,440.0293 Q516.9053,440.0293 517.4988,439.7595 Q518.0923,439.4897 518.7231,438.9087 Z " fill="#000000"/><text fill="#000000" font-family="sans-serif" font-size="14" lengthAdjust="spacing" textLength="54" x="536.75" y="440.7793">FileMod</text><line style="stroke:#181818;stroke-width:0.5;" x1="425.5" x2="669.5" y1="451.4883" y2="451.4883"/><rect fill="none" height="6" style="stroke:#C82930;stroke-width:1.0;" width="6" x="432.5" y="462.2324"/><text fill="#000000" font-family="sans-serif" font-size="14" lengthAdjust="spacing" textLength="220" x="444.5" y="469.0234">requirementsRoot: Requirement</text><line style="stroke:#181818;stroke-width:1.0;" x1="425.5" x2="669.5" y1="475.9766" y2="475.9766"/><ellipse cx="435.5" cy="489.7207" fill="#84BE84" rx="3" ry="3" style="stroke:#038048;stroke-width:1.0;"/><text fill="#000000" font-family="sans-serif" font-size="14" lengthAdjust="spacing" textLength="155" x="444.5" y="493.5117">getRequirements(): err</text></g><!--MD5=[bdda2413929e8de12b9a682af853f918]
link VisualiserConsole to Visualiser--><g id="link_VisualiserConsole_Visualiser"><path codeLine="55" d="M327.5,125.1783 C327.5,145.7683 327.5,173.8183 327.5,200.6983 " fill="none" id="VisualiserConsole-to-Visualiser" style="stroke:#181818;stroke-width:1.0;"/><polygon fill="none" points="334.5,200.3583,327.5,220.3583,320.5,200.3583,334.5,200.3583" style="stroke:#181818;stroke-width:1.0;"/></g><!--MD5=[0a725316d4478ec99667c1c65360f0e1]
link VisualiserPUML to Visualiser--><g id="link_VisualiserPUML_Visualiser"><path codeLine="56" d="M478.18,125.1783 C457.49,147.1883 428.79,177.7183 401.99,206.2383 " fill="none" id="VisualiserPUML-to-Visualiser" style="stroke:#181818;stroke-width:1.0;"/><polygon fill="none" points="407.58,210.5783,388.78,220.3583,397.38,200.9883,407.58,210.5783" style="stroke:#181818;stroke-width:1.0;"/></g><!--MD5=[e4ced45fe1bc44c5e24381dbe0a3d4ae]
link Visualiser to IVisualiser--><g id="link_Visualiser_IVisualiser"><path codeLine="57" d="M249.08,351.8383 C230.63,366.9783 211.02,383.0683 192.76,398.0483 " fill="none" id="Visualiser-to-IVisualiser" style="stroke:#181818;stroke-width:1.0;stroke-dasharray:7.0,7.0;"/><polygon fill="none" points="197.68,403.8883,177.78,411.1683,188.8,393.0683,197.68,403.8883" style="stroke:#181818;stroke-width:1.0;"/></g><!--MD5=[af1ed4bcc5f150c8ab33fbd9b99f2496]
link Visualiser to FilePattern--><g id="link_Visualiser_FilePattern"><path codeLine="58" d="M327.5,351.8383 C327.5,372.3383 327.5,394.5783 327.5,413.4583 " fill="none" id="Visualiser-to-FilePattern" style="stroke:#181818;stroke-width:1.0;stroke-dasharray:7.0,7.0;"/><polygon fill="#181818" points="327.5,418.2083,331.5,409.2083,327.5,413.2083,323.5,409.2083,327.5,418.2083" style="stroke:#181818;stroke-width:1.0;"/></g><!--MD5=[6a0c0fed14d8c55696628257ae7611cf]
link FileModules to Visualiser--><g id="link_FileModules_Visualiser"><path codeLine="59" d="M170.92,141.3283 C193.96,162.5483 221.68,188.0683 247.36,211.6983 " fill="none" id="FileModules-to-Visualiser" style="stroke:#181818;stroke-width:1.0;"/><polygon fill="#181818" points="256.45,219.9983,254.7456,212.9915,247.6222,211.8699,249.3267,218.8767,256.45,219.9983" style="stroke:#181818;stroke-width:1.0;"/><text fill="#000000" font-family="sans-serif" font-size="13" lengthAdjust="spacing" textLength="8" x="190.7793" y="162.8448">1</text></g><!--MD5=[68c7f8163bbec246331070fd9a1e2487]
link Visualiser to FileMod--><g id="link_Visualiser_FileMod"><path codeLine="60" d="M410.05,351.8383 C437.36,373.1283 467.1,396.3083 491.9,415.6383 " fill="none" id="Visualiser-to-FileMod" style="stroke:#181818;stroke-width:1.0;stroke-dasharray:7.0,7.0;"/><polygon fill="#181818" points="495.47,419.2083,490.8281,410.5219,491.5255,416.1356,485.9119,416.833,495.47,419.2083" style="stroke:#181818;stroke-width:1.0;"/></g><!--MD5=[50b630da32365f507249682aa146a380]
link RequirementNode to RequirementNode--><g id="link_RequirementNode_RequirementNode"><path codeLine="62" d="M659.34,739.4583 C692.61,740.3583 718.5,750.3683 718.5,769.4883 C718.5,788.6083 692.61,798.6183 659.34,799.5183 " fill="none" id="RequirementNode-RequirementNode" style="stroke:#181818;stroke-width:1.0;"/><text fill="#000000" font-family="sans-serif" font-size="13" lengthAdjust="spacing" textLength="8" x="667.179" y="731.4655">1</text><text fill="#000000" font-family="sans-serif" font-size="13" lengthAdjust="spacing" textLength="6" x="667.2851" y="799.9306">*</text></g><!--MD5=[d8c1cfad9e663b43b7e736418816da79]
link Requirement to RequirementNode--><g id="link_Requirement_RequirementNode"><path codeLine="63" d="M547.5,649.9883 C547.5,669.8983 547.5,694.2383 547.5,715.6683 " fill="none" id="Requirement-to-RequirementNode" style="stroke:#181818;stroke-width:1.0;"/><polygon fill="none" points="547.5,728.5983,551.5,722.5983,547.5,716.5983,543.5,722.5983,547.5,728.5983" style="stroke:#181818;stroke-width:1.0;"/></g><!--MD5=[922f3e36c0068f6139a33154a66de390]
link FileMod to Requirement--><g id="link_FileMod_Requirement"><path codeLine="64" d="M547.5,500.7683 C547.5,517.2783 547.5,536.6783 547.5,554.4083 " fill="none" id="FileMod-to-Requirement" style="stroke:#181818;stroke-width:1.0;"/><polygon fill="none" points="547.5,567.1783,551.5,561.1783,547.5,555.1783,543.5,561.1783,547.5,567.1783" style="stroke:#181818;stroke-width:1.0;"/></g><!--MD5=[64b92b37c1c140fabb0b24f77eae7dad]
@startuml ModulesVisualiser

title "Go modules visualiser"

interface IVisualiser {
    + visualise(): void
    + readFiles(files []string): void
    + readFolder(path string): void
}

class FileModules {
    + modules: []string
    + file: string
    + hash: hash64
}

class Visualiser {
    + files: []string
    - fileModules: map[string]FileModules
    - graph: Graph
    - -
    + readFiles(files []string): void
    + readFolder(path string): void
}

class VisualiserConsole {
    + visualise(): void
}

class VisualiserPUML {
    + visualise(): void
}

class FilePattern {
    + pattern: string
    + regex: Regex
}

class RequirementNode {
    url string
    childs map[string]Requirement
}

class Requirement {
    + root RequirementNode
    - -
    + addRequirement(Requirement)
}


class FileMod {
    - requirementsRoot: Requirement
    - -
    + getRequirements(): err
}
VisualiserConsole - -|> Visualiser
VisualiserPUML - -|> Visualiser
Visualiser ..|> IVisualiser
Visualiser ..> FilePattern
FileModules "1" - -* Visualiser
Visualiser ..> FileMod

RequirementNode "1" - - "*" RequirementNode
Requirement - -o RequirementNode
FileMod - -o Requirement


@enduml

PlantUML version 1.2022.7(Mon Aug 22 20:01:30 MSK 2022)
(GPL source distribution)
Java Runtime: OpenJDK Runtime Environment
JVM: OpenJDK 64-Bit Server VM
Default Encoding: UTF-8
Language: en
Country: US
--></g></svg>